# xmcd CD database file
#
# Track frame offsets:
#	150
#	79673
#	150558
#
# Disc length: 2765 seconds
#
# Revision: 2
# Processed by: cddbd v1.5.1PL0 Copyright (c) Steve Scherf et al.
# Submitted via: CDex 1.51
#
DISCID=140acb03
DTITLE=Elvin Jones Jazzmachine - Jazzgipfel Stuttgart 1991
DYEAR=1991
DGENRE=Jazz
TTITLE0=Elvin Jones Jazzmachine - Is There A Jackson In The House ?
TTITLE1=Elvin Jones Jazzmachine - Ray-El
TTITLE2=Elvin Jones Jazzmachine - Doll Of The Bride
EXTD=YEAR: 1991
EXTT0=
EXTT1=
EXTT2=
PLAYORDER=
